<?xml version="1.0" encoding="UTF-8" standalone="no"?>
<!-- Created with Inkscape (http://www.inkscape.org/) -->

<svg
   xmlns:dc="http://purl.org/dc/elements/1.1/"
   xmlns:cc="http://creativecommons.org/ns#"
   xmlns:rdf="http://www.w3.org/1999/02/22-rdf-syntax-ns#"
   xmlns:svg="http://www.w3.org/2000/svg"
   xmlns="http://www.w3.org/2000/svg"
   xmlns:sodipodi="http://sodipodi.sourceforge.net/DTD/sodipodi-0.dtd"
   xmlns:inkscape="http://www.inkscape.org/namespaces/inkscape"
   width="530.83051"
   height="206.25209"
   id="svg2"
   sodipodi:version="0.32"
   inkscape:version="0.48.4 r9939"
   sodipodi:docname="hdd-struct.svg"
   inkscape:output_extension="org.inkscape.output.svg.inkscape"
   version="1.1">
  <defs
     id="defs4" />
  <sodipodi:namedview
     id="base"
     pagecolor="#ffffff"
     bordercolor="#666666"
     borderopacity="1.0"
     inkscape:pageopacity="0.0"
     inkscape:pageshadow="2"
     inkscape:zoom="1.2245245"
     inkscape:cx="403.45351"
     inkscape:cy="130.67567"
     inkscape:document-units="px"
     inkscape:current-layer="g1572"
     showgrid="true"
     inkscape:grid-points="true"
     inkscape:grid-bbox="true"
     showguides="true"
     inkscape:guide-bbox="true"
     inkscape:window-width="1328"
     inkscape:window-height="878"
     inkscape:window-x="-8"
     inkscape:window-y="-8"
     fit-margin-top="0"
     fit-margin-left="0"
     fit-margin-right="0"
     fit-margin-bottom="0"
     inkscape:window-maximized="1" />
  <metadata
     id="metadata7">
    <rdf:RDF>
      <cc:Work
         rdf:about="">
        <dc:format>image/svg+xml</dc:format>
        <dc:type
           rdf:resource="http://purl.org/dc/dcmitype/StillImage" />
        <dc:title>Cylinder, Head, Sector</dc:title>
        <dc:date>2005-09-18</dc:date>
        <dc:creator>
          <cc:Agent>
            <dc:title>Lion Kimbro</dc:title>
          </cc:Agent>
        </dc:creator>
        <dc:rights>
          <cc:Agent>
            <dc:title>Original Author, Released to Public Domain</dc:title>
          </cc:Agent>
        </dc:rights>
        <dc:language>en</dc:language>
        <dc:subject>
          <rdf:Bag>
            <rdf:li>cylinder head sector track platter</rdf:li>
          </rdf:Bag>
        </dc:subject>
        <dc:description>A diagram of cylinders/tracks and sectors on a platter. Also, a diagram of four (4) stacked platters, and eight (8) read/write heads.</dc:description>
        <dc:contributor>
          <cc:Agent>
            <dc:title>Lion Kimbro</dc:title>
          </cc:Agent>
        </dc:contributor>
        <cc:license
           rdf:resource="http://web.resource.org/cc/PublicDomain" />
      </cc:Work>
      <cc:License
         rdf:about="http://web.resource.org/cc/PublicDomain">
        <cc:permits
           rdf:resource="http://web.resource.org/cc/Reproduction" />
        <cc:permits
           rdf:resource="http://web.resource.org/cc/Distribution" />
        <cc:permits
           rdf:resource="http://web.resource.org/cc/DerivativeWorks" />
      </cc:License>
    </rdf:RDF>
  </metadata>
  <g
     inkscape:label="Layer 1"
     inkscape:groupmode="layer"
     id="layer1"
     transform="translate(-5.950653,-60.480656)">
    <g
       id="g1572"
       transform="translate(-176.3828,-393.1287)">
      <g
         id="g3105">
        <path
           sodipodi:type="arc"
           style="color:#000000;fill:#f5f5ff;fill-opacity:1;fill-rule:evenodd;stroke:#000000;stroke-width:3;stroke-linecap:butt;stroke-linejoin:miter;stroke-miterlimit:4;stroke-opacity:1;stroke-dasharray:none;stroke-dashoffset:0;marker:none;visibility:visible;display:inline;overflow:visible"
           id="path2780"
           sodipodi:cx="487"
           sodipodi:cy="584.36218"
           sodipodi:rx="140"
           sodipodi:ry="140"
           d="m 627,584.36218 c 0,77.31987 -62.68014,140 -140,140 -77.31986,0 -140,-62.68013 -140,-140 0,-77.31986 62.68014,-140 140,-140 77.31986,0 140,62.68014 140,140 z"
           transform="matrix(0.728806,0,0,0.728806,-69.46902,130.84874)" />
        <path
           sodipodi:type="arc"
           style="color:#000000;fill:none;stroke:#000000;stroke-width:4.6616497;stroke-linecap:butt;stroke-linejoin:miter;stroke-miterlimit:1;stroke-opacity:1;stroke-dasharray:none;stroke-dashoffset:0;marker:none;visibility:visible;display:inline;overflow:visible"
           id="path2778"
           sodipodi:cx="487"
           sodipodi:cy="582.36218"
           sodipodi:rx="85"
           sodipodi:ry="85"
           d="m 572,582.36218 c 0,46.94421 -38.0558,85 -85,85 -46.9442,0 -85,-38.05579 -85,-85 0,-46.9442 38.0558,-85 85,-85 46.9442,0 85,38.0558 85,85 z"
           transform="matrix(0.10655071,0,0,0.10693698,233.56932,494.45939)" />
        <path
           sodipodi:type="arc"
           style="color:#000000;fill:none;stroke:#000000;stroke-width:1;stroke-linecap:butt;stroke-linejoin:miter;stroke-miterlimit:4;stroke-opacity:1;stroke-dasharray:none;stroke-dashoffset:0;marker:none;visibility:visible;display:inline;overflow:visible"
           id="path2784"
           sodipodi:cx="487"
           sodipodi:cy="582.36218"
           sodipodi:rx="85"
           sodipodi:ry="85"
           d="m 572,582.36218 c 0,46.94421 -38.0558,85 -85,85 -46.9442,0 -85,-38.05579 -85,-85 0,-46.9442 38.0558,-85 85,-85 46.9442,0 85,38.0558 85,85 z"
           transform="matrix(0.21310142,0,0,0.21367499,181.67914,432.29916)" />
        <path
           sodipodi:type="arc"
           style="color:#000000;fill:none;stroke:#000000;stroke-width:1;stroke-linecap:butt;stroke-linejoin:miter;stroke-miterlimit:4;stroke-opacity:1;stroke-dasharray:none;stroke-dashoffset:0;marker:none;visibility:visible;display:inline;overflow:visible"
           id="path2786"
           sodipodi:cx="487"
           sodipodi:cy="582.36218"
           sodipodi:rx="85"
           sodipodi:ry="85"
           d="m 572,582.36218 c 0,46.94421 -38.0558,85 -85,85 -46.9442,0 -85,-38.05579 -85,-85 0,-46.9442 38.0558,-85 85,-85 46.9442,0 85,38.0558 85,85 z"
           transform="matrix(0.31964994,0,0,0.31965358,129.78997,370.58124)" />
        <path
           sodipodi:type="arc"
           style="color:#000000;fill:none;stroke:#000000;stroke-width:1;stroke-linecap:butt;stroke-linejoin:miter;stroke-miterlimit:4;stroke-opacity:1;stroke-dasharray:none;stroke-dashoffset:0;marker:none;visibility:visible;display:inline;overflow:visible"
           id="path2788"
           sodipodi:cx="487"
           sodipodi:cy="582.36218"
           sodipodi:rx="85"
           sodipodi:ry="85"
           d="m 572,582.36218 c 0,46.94421 -38.0558,85 -85,85 -46.9442,0 -85,-38.05579 -85,-85 0,-46.9442 38.0558,-85 85,-85 46.9442,0 85,38.0558 85,85 z"
           transform="matrix(0.4262021,0,0,0.42678952,77.899059,308.18933)" />
        <path
           sodipodi:type="arc"
           style="color:#000000;fill:none;stroke:#000000;stroke-width:1;stroke-linecap:butt;stroke-linejoin:miter;stroke-miterlimit:4;stroke-opacity:1;stroke-dasharray:none;stroke-dashoffset:0;marker:none;visibility:visible;display:inline;overflow:visible"
           id="path2790"
           sodipodi:cx="487"
           sodipodi:cy="582.36218"
           sodipodi:rx="85"
           sodipodi:ry="85"
           d="m 572,582.36218 c 0,46.94421 -38.0558,85 -85,85 -46.9442,0 -85,-38.05579 -85,-85 0,-46.9442 38.0558,-85 85,-85 46.9442,0 85,38.0558 85,85 z"
           transform="matrix(0.53275281,0,0,0.5332054,26.008873,246.21677)" />
        <path
           sodipodi:type="arc"
           style="color:#000000;fill:none;stroke:#000000;stroke-width:1;stroke-linecap:butt;stroke-linejoin:miter;stroke-miterlimit:4;stroke-opacity:1;stroke-dasharray:none;stroke-dashoffset:0;marker:none;visibility:visible;display:inline;overflow:visible"
           id="path2792"
           sodipodi:cx="487"
           sodipodi:cy="582.36218"
           sodipodi:rx="85"
           sodipodi:ry="85"
           d="m 572,582.36218 c 0,46.94421 -38.0558,85 -85,85 -46.9442,0 -85,-38.05579 -85,-85 0,-46.9442 38.0558,-85 85,-85 46.9442,0 85,38.0558 85,85 z"
           transform="matrix(0.63930352,0,0,0.63954038,-25.881312,184.29129)" />
        <path
           sodipodi:type="arc"
           style="color:#000000;fill:none;stroke:#000000;stroke-width:1;stroke-linecap:butt;stroke-linejoin:miter;stroke-miterlimit:4;stroke-opacity:1;stroke-dasharray:none;stroke-dashoffset:0;marker:none;visibility:visible;display:inline;overflow:visible"
           id="path2794"
           sodipodi:cx="487"
           sodipodi:cy="582.36218"
           sodipodi:rx="85"
           sodipodi:ry="85"
           d="m 572,582.36218 c 0,46.94421 -38.0558,85 -85,85 -46.9442,0 -85,-38.05579 -85,-85 0,-46.9442 38.0558,-85 85,-85 46.9442,0 85,38.0558 85,85 z"
           transform="matrix(0.74585423,0,0,0.74580321,-77.771505,122.40786)" />
        <path
           sodipodi:type="arc"
           style="color:#000000;fill:none;stroke:#000000;stroke-width:1;stroke-linecap:butt;stroke-linejoin:miter;stroke-miterlimit:4;stroke-opacity:1;stroke-dasharray:none;stroke-dashoffset:0;marker:none;visibility:visible;display:inline;overflow:visible"
           id="path2796"
           sodipodi:cx="487"
           sodipodi:cy="582.36218"
           sodipodi:rx="85"
           sodipodi:ry="85"
           d="m 572,582.36218 c 0,46.94421 -38.0558,85 -85,85 -46.9442,0 -85,-38.05579 -85,-85 0,-46.9442 38.0558,-85 85,-85 46.9442,0 85,38.0558 85,85 z"
           transform="matrix(0.85240494,0,0,0.85199899,-129.66171,60.563423)" />
        <path
           sodipodi:type="arc"
           style="color:#000000;fill:none;stroke:#000000;stroke-width:1;stroke-linecap:butt;stroke-linejoin:miter;stroke-miterlimit:4;stroke-opacity:1;stroke-dasharray:none;stroke-dashoffset:0;marker:none;visibility:visible;display:inline;overflow:visible"
           id="path2798"
           sodipodi:cx="487"
           sodipodi:cy="582.36218"
           sodipodi:rx="85"
           sodipodi:ry="85"
           d="m 572,582.36218 c 0,46.94421 -38.0558,85 -85,85 -46.9442,0 -85,-38.05579 -85,-85 0,-46.9442 38.0558,-85 85,-85 46.9442,0 85,38.0558 85,85 z"
           transform="matrix(0.95895492,0,0,0.95813137,-181.55158,-1.2440633)" />
        <path
           sodipodi:type="arc"
           style="color:#000000;fill:none;stroke:#000000;stroke-width:1;stroke-linecap:butt;stroke-linejoin:miter;stroke-miterlimit:4;stroke-opacity:1;stroke-dasharray:none;stroke-dashoffset:0;marker:none;visibility:visible;display:inline;overflow:visible"
           id="path2800"
           sodipodi:cx="487"
           sodipodi:cy="582.36218"
           sodipodi:rx="85"
           sodipodi:ry="85"
           d="m 572,582.36218 c 0,46.94421 -38.0558,85 -85,85 -46.9442,0 -85,-38.05579 -85,-85 0,-46.9442 38.0558,-85 85,-85 46.9442,0 85,38.0558 85,85 z"
           transform="matrix(1.0655056,0,0,1.0642047,-233.44176,-63.01715)" />
        <g
           id="g3552"
           style="stroke:#f5f5ff;stroke-width:2;stroke-miterlimit:4;stroke-opacity:1;stroke-dasharray:none"
           transform="matrix(0.728806,0,0,0.728806,204.19786,74.272628)">
          <path
             id="path3528"
             d="M 143.87002,537.6896 78.129981,783.03476"
             style="fill:none;stroke:#f5f5ff;stroke-width:2;stroke-linecap:butt;stroke-linejoin:miter;stroke-miterlimit:4;stroke-opacity:1;stroke-dasharray:none"
             inkscape:connector-curvature="0" />
          <path
             id="path3530"
             d="M 174.5,550.37695 47.5,770.34741"
             style="fill:none;stroke:#f5f5ff;stroke-width:2;stroke-linecap:butt;stroke-linejoin:miter;stroke-miterlimit:4;stroke-opacity:1;stroke-dasharray:none"
             inkscape:connector-curvature="0" />
          <path
             id="path3532"
             d="m 111,533.36218 0,254"
             style="fill:none;stroke:#f5f5ff;stroke-width:2;stroke-linecap:butt;stroke-linejoin:miter;stroke-miterlimit:4;stroke-opacity:1;stroke-dasharray:none"
             inkscape:connector-curvature="0" />
          <path
             id="path3534"
             d="M 200.80256,570.55962 21.197438,750.16474"
             style="fill:none;stroke:#f5f5ff;stroke-width:2;stroke-linecap:butt;stroke-linejoin:miter;stroke-miterlimit:4;stroke-opacity:1;stroke-dasharray:none"
             inkscape:connector-curvature="0" />
          <path
             id="path3536"
             d="m 220.98522,596.86218 -219.9704468,127"
             style="fill:none;stroke:#f5f5ff;stroke-width:2;stroke-linecap:butt;stroke-linejoin:miter;stroke-miterlimit:4;stroke-opacity:1;stroke-dasharray:none"
             inkscape:connector-curvature="0" />
          <path
             id="path3538"
             d="M 233.67257,627.49216 -11.672581,693.2322"
             style="fill:none;stroke:#f5f5ff;stroke-width:2;stroke-linecap:butt;stroke-linejoin:miter;stroke-miterlimit:4;stroke-opacity:1;stroke-dasharray:none"
             inkscape:connector-curvature="0" />
          <path
             id="path3540"
             d="m 237.99999,660.36218 -253.999992,0"
             style="fill:none;stroke:#f5f5ff;stroke-width:2;stroke-linecap:butt;stroke-linejoin:miter;stroke-miterlimit:4;stroke-opacity:1;stroke-dasharray:none"
             inkscape:connector-curvature="0" />
          <path
             id="path3542"
             d="M 78.129981,537.6896 143.87002,783.03476"
             style="fill:none;stroke:#f5f5ff;stroke-width:2;stroke-linecap:butt;stroke-linejoin:miter;stroke-miterlimit:4;stroke-opacity:1;stroke-dasharray:none"
             inkscape:connector-curvature="0" />
          <path
             id="path3544"
             d="m 47.5,550.37695 127,219.97046"
             style="fill:none;stroke:#f5f5ff;stroke-width:2;stroke-linecap:butt;stroke-linejoin:miter;stroke-miterlimit:4;stroke-opacity:1;stroke-dasharray:none"
             inkscape:connector-curvature="0" />
          <path
             id="path3546"
             d="M 21.197438,570.55962 200.80256,750.16474"
             style="fill:none;stroke:#f5f5ff;stroke-width:2;stroke-linecap:butt;stroke-linejoin:miter;stroke-miterlimit:4;stroke-opacity:1;stroke-dasharray:none"
             inkscape:connector-curvature="0" />
          <path
             id="path3548"
             d="m 1.0147732,596.86218 219.9704468,127"
             style="fill:none;stroke:#f5f5ff;stroke-width:2;stroke-linecap:butt;stroke-linejoin:miter;stroke-miterlimit:4;stroke-opacity:1;stroke-dasharray:none"
             inkscape:connector-curvature="0" />
          <path
             id="path3550"
             d="M -11.672581,627.49216 233.67257,693.2322"
             style="fill:none;stroke:#f5f5ff;stroke-width:2;stroke-linecap:butt;stroke-linejoin:miter;stroke-miterlimit:4;stroke-opacity:1;stroke-dasharray:none"
             inkscape:connector-curvature="0" />
        </g>
        <path
           inkscape:connector-curvature="0"
           style="color:#000000;fill:#e5f867;fill-opacity:0.57236843;fill-rule:evenodd;stroke:#000000;stroke-width:0.85095489;stroke-linecap:butt;stroke-linejoin:miter;stroke-miterlimit:4;stroke-opacity:1;stroke-dasharray:none;stroke-dashoffset:0;marker:none;visibility:visible;display:inline;overflow:visible"
           d="m 285.4595,481.00044 c -41.80571,0 -75.73498,33.92928 -75.73498,75.73498 0,41.80571 33.92927,75.73498 75.73498,75.73498 41.8057,0 75.73497,-33.92927 75.73497,-75.73498 0,-41.8057 -33.92927,-75.73498 -75.73497,-75.73498 z m 0,5.95668 c 38.51762,0 69.7783,31.26068 69.7783,69.7783 0,38.51762 -31.26068,69.7783 -69.7783,69.7783 -38.51763,0 -69.7783,-31.26068 -69.7783,-69.7783 0,-38.51762 31.26067,-69.7783 69.7783,-69.7783 z"
           id="path4326" />
        <path
           sodipodi:type="arc"
           style="color:#000000;fill:#ff552a;fill-opacity:0.40789472;fill-rule:evenodd;stroke:#f5f5ff;stroke-width:1;stroke-linecap:butt;stroke-linejoin:miter;stroke-miterlimit:4;stroke-opacity:1;stroke-dasharray:none;stroke-dashoffset:0;marker:none;visibility:visible;display:inline;overflow:visible"
           id="path8011"
           sodipodi:cx="317"
           sodipodi:cy="469.36218"
           sodipodi:rx="154"
           sodipodi:ry="154"
           d="m 450.87068,545.48472 c -6.85876,12.06196 -15.31623,23.14164 -25.14277,32.93819 L 317,469.36218 z"
           sodipodi:start="0.51703195"
           sodipodi:end="0.78692635"
           transform="matrix(0.728806,0,0,0.728806,54.063825,213.47451)" />
        <text
           sodipodi:linespacing="125%"
           id="text11732"
           y="470.59109"
           x="399.51788"
           style="font-size:21.06624794px;font-style:normal;font-variant:normal;font-weight:normal;font-stretch:normal;text-indent:0;text-align:start;text-decoration:none;line-height:125%;letter-spacing:normal;word-spacing:normal;text-transform:none;direction:ltr;block-progression:tb;writing-mode:lr-tb;text-anchor:start;color:#000000;fill:#000000;fill-opacity:1;fill-rule:nonzero;stroke:none;stroke-width:1px;marker:none;visibility:visible;display:inline;overflow:visible;font-family:Bitstream Vera Sans"
           xml:space="preserve"><tspan
             style="font-family:Gill Sans MT"
             y="470.59109"
             x="399.51788"
             id="tspan11734"
             sodipodi:role="line">Track/</tspan><tspan
             style="font-family:Gill Sans MT"
             id="tspan11736"
             y="496.92392"
             x="399.51788"
             sodipodi:role="line">Cylinder</tspan></text>
        <text
           xml:space="preserve"
           style="font-size:21.06624794px;font-style:normal;font-variant:normal;font-weight:normal;font-stretch:normal;text-indent:0;text-align:start;text-decoration:none;line-height:125%;letter-spacing:normal;word-spacing:normal;text-transform:none;direction:ltr;block-progression:tb;writing-mode:lr-tb;text-anchor:start;color:#000000;fill:#000000;fill-opacity:1;fill-rule:nonzero;stroke:none;stroke-width:1px;marker:none;visibility:visible;display:inline;overflow:visible;font-family:Bitstream Vera Sans"
           x="381.02197"
           y="637.60773"
           id="text11724"
           sodipodi:linespacing="125%"><tspan
             style="font-family:Gill Sans MT"
             sodipodi:role="line"
             x="381.02197"
             y="637.60773"
             id="tspan11730">Sector</tspan></text>
        <path
           inkscape:connector-curvature="0"
           style="fill:none;stroke:#000000;stroke-width:0.72880602px;stroke-linecap:butt;stroke-linejoin:miter;stroke-opacity:1"
           d="M 346.31502,511.8202 392.2298,473.92229"
           id="path11744" />
      </g>
      <g
         id="g3080">
        <path
           style="fill:#a09d9d;fill-opacity:1;fill-rule:evenodd;stroke:#000000;stroke-width:1px;stroke-linecap:butt;stroke-linejoin:miter;stroke-opacity:1"
           d="m 482.15017,581.99964 77,19 -84,-13 -2,-7 9,1 z"
           id="path10203"
           inkscape:connector-curvature="0" />
        <path
           transform="matrix(-1,-8.852539e-8,-1.246202e-7,-0.288592,645.15007,743.42706)"
           d="m 156,559.36218 c 0,40.31679 -31.34007,73 -70,73 -38.659932,0 -70,-32.68321 -70,-73 0,-40.31678 31.340068,-73 70,-73 38.65993,0 70,32.68322 70,73 z"
           sodipodi:ry="73"
           sodipodi:rx="70"
           sodipodi:cy="559.36218"
           sodipodi:cx="86"
           id="path10197"
           style="color:#000000;fill:#f5f5ff;fill-opacity:1;fill-rule:evenodd;stroke:#000000;stroke-width:3;stroke-linecap:butt;stroke-linejoin:miter;stroke-miterlimit:4;stroke-opacity:1;stroke-dasharray:none;stroke-dashoffset:0;marker:none;visibility:visible;display:inline;overflow:visible"
           sodipodi:type="arc" />
        <path
           id="path10205"
           d="m 482.15017,578.99964 77,19 -84,-13 -2,-7 9,1 z"
           style="fill:#a09d9d;fill-opacity:1;fill-rule:evenodd;stroke:#000000;stroke-width:1px;stroke-linecap:butt;stroke-linejoin:miter;stroke-opacity:1"
           inkscape:connector-curvature="0" />
        <path
           id="path10215"
           d="m 482.15017,564.99964 77,19 -84,-13 -2,-7 9,1 z"
           style="fill:#a09d9d;fill-opacity:1;fill-rule:evenodd;stroke:#000000;stroke-width:1px;stroke-linecap:butt;stroke-linejoin:miter;stroke-opacity:1"
           inkscape:connector-curvature="0" />
        <path
           transform="matrix(-1,-8.852539e-8,-1.246202e-7,-0.288592,645.15017,728.09376)"
           d="m 156,559.36218 c 0,40.31679 -31.34007,73 -70,73 -38.659932,0 -70,-32.68321 -70,-73 0,-40.31678 31.340068,-73 70,-73 38.65993,0 70,32.68322 70,73 z"
           sodipodi:ry="73"
           sodipodi:rx="70"
           sodipodi:cy="559.36218"
           sodipodi:cx="86"
           id="path10199"
           style="color:#000000;fill:#f5f5ff;fill-opacity:1;fill-rule:evenodd;stroke:#000000;stroke-width:3;stroke-linecap:butt;stroke-linejoin:miter;stroke-miterlimit:4;stroke-opacity:1;stroke-dasharray:none;stroke-dashoffset:0;marker:none;visibility:visible;display:inline;overflow:visible"
           sodipodi:type="arc" />
        <path
           style="fill:#a09d9d;fill-opacity:1;fill-rule:evenodd;stroke:#000000;stroke-width:1px;stroke-linecap:butt;stroke-linejoin:miter;stroke-opacity:1"
           d="m 482.15017,561.99964 77,19 -84,-13 -2,-7 9,1 z"
           id="path10217"
           inkscape:connector-curvature="0" />
        <path
           id="path10207"
           d="m 483.15017,534.99964 77,19 -84,-13 -2,-7 9,1 z"
           style="fill:#a09d9d;fill-opacity:1;fill-rule:evenodd;stroke:#000000;stroke-width:1px;stroke-linecap:butt;stroke-linejoin:miter;stroke-opacity:1"
           inkscape:connector-curvature="0" />
        <path
           id="path10211"
           d="m 482.15017,549.99964 77,19 -84,-13 -2,-7 9,1 z"
           style="fill:#a09d9d;fill-opacity:1;fill-rule:evenodd;stroke:#000000;stroke-width:1px;stroke-linecap:butt;stroke-linejoin:miter;stroke-opacity:1"
           inkscape:connector-curvature="0" />
        <path
           transform="matrix(-1,-8.852539e-8,-1.246202e-7,-0.288592,645.14997,712.76066)"
           d="m 156,559.36218 c 0,40.31679 -31.34007,73 -70,73 -38.659932,0 -70,-32.68321 -70,-73 0,-40.31678 31.340068,-73 70,-73 38.65993,0 70,32.68322 70,73 z"
           sodipodi:ry="73"
           sodipodi:rx="70"
           sodipodi:cy="559.36218"
           sodipodi:cx="86"
           id="path10201"
           style="color:#000000;fill:#f5f5ff;fill-opacity:1;fill-rule:evenodd;stroke:#000000;stroke-width:3;stroke-linecap:butt;stroke-linejoin:miter;stroke-miterlimit:4;stroke-opacity:1;stroke-dasharray:none;stroke-dashoffset:0;marker:none;visibility:visible;display:inline;overflow:visible"
           sodipodi:type="arc" />
        <path
           sodipodi:type="arc"
           style="color:#000000;fill:#f5f5ff;fill-opacity:1;fill-rule:evenodd;stroke:#000000;stroke-width:3;stroke-linecap:butt;stroke-linejoin:miter;stroke-miterlimit:4;stroke-opacity:1;stroke-dasharray:none;stroke-dashoffset:0;marker:none;visibility:visible;display:inline;overflow:visible"
           id="path9467"
           sodipodi:cx="86"
           sodipodi:cy="559.36218"
           sodipodi:rx="70"
           sodipodi:ry="73"
           d="m 156,559.36218 c 0,40.31679 -31.34007,73 -70,73 -38.659932,0 -70,-32.68321 -70,-73 0,-40.31678 31.340068,-73 70,-73 38.65993,0 70,32.68322 70,73 z"
           transform="matrix(-1,-8.852539e-8,-1.246202e-7,-0.288592,645.15017,697.42756)" />
        <path
           style="fill:#a09d9d;fill-opacity:1;fill-rule:evenodd;stroke:#000000;stroke-width:1px;stroke-linecap:butt;stroke-linejoin:miter;stroke-opacity:1"
           d="m 483.15017,531.99964 77,19 -84,-13 -2,-7 9,1 z"
           id="path10209"
           inkscape:connector-curvature="0" />
        <path
           style="fill:#a09d9d;fill-opacity:1;fill-rule:evenodd;stroke:#000000;stroke-width:1px;stroke-linecap:butt;stroke-linejoin:miter;stroke-opacity:1"
           d="m 482.15017,546.99964 77,19 -84,-13 -2,-7 9,1 z"
           id="path10213"
           inkscape:connector-curvature="0" />
        <g
           transform="translate(473.15017,-108.36254)"
           id="g11687"
           style="fill:#000000;fill-opacity:1">
          <path
             transform="matrix(-0.177069,-1.567507e-8,-2.206633e-8,-0.0511006,101.2278,672.9464)"
             d="m 156,559.36218 c 0,40.31679 -31.34007,73 -70,73 -38.659932,0 -70,-32.68321 -70,-73 0,-40.31678 31.340068,-73 70,-73 38.65993,0 70,32.68322 70,73 z"
             sodipodi:ry="73"
             sodipodi:rx="70"
             sodipodi:cy="559.36218"
             sodipodi:cx="86"
             id="path10955"
             style="color:#000000;fill:#000000;fill-opacity:1;fill-rule:evenodd;stroke:#000000;stroke-width:3;stroke-linecap:butt;stroke-linejoin:miter;stroke-miterlimit:4;stroke-opacity:1;stroke-dasharray:none;stroke-dashoffset:0;marker:none;visibility:visible;display:inline;overflow:visible"
             sodipodi:type="arc" />
          <path
             transform="matrix(-0.177069,-1.567507e-8,-2.206633e-8,-0.0511006,101.2278,666.9464)"
             d="m 156,559.36218 c 0,40.31679 -31.34007,73 -70,73 -38.659932,0 -70,-32.68321 -70,-73 0,-40.31678 31.340068,-73 70,-73 38.65993,0 70,32.68322 70,73 z"
             sodipodi:ry="73"
             sodipodi:rx="70"
             sodipodi:cy="559.36218"
             sodipodi:cx="86"
             id="path11683"
             style="color:#000000;fill:#000000;fill-opacity:1;fill-rule:evenodd;stroke:#000000;stroke-width:3;stroke-linecap:butt;stroke-linejoin:miter;stroke-miterlimit:4;stroke-opacity:1;stroke-dasharray:none;stroke-dashoffset:0;marker:none;visibility:visible;display:inline;overflow:visible"
             sodipodi:type="arc" />
          <rect
             y="638.36218"
             x="75"
             height="6"
             width="22"
             id="rect11685"
             style="color:#000000;fill:#000000;fill-opacity:1;fill-rule:evenodd;stroke:#000000;stroke-width:3;stroke-linecap:butt;stroke-linejoin:miter;stroke-miterlimit:4;stroke-opacity:1;stroke-dasharray:none;stroke-dashoffset:0;marker:none;visibility:visible;display:inline;overflow:visible" />
        </g>
        <text
           xml:space="preserve"
           style="font-size:12px;font-style:normal;font-weight:normal;fill:#000000;fill-opacity:1;stroke:none;font-family:Bitstream Vera Sans"
           x="651.07935"
           y="570.17535"
           id="text11710"><tspan
             style="font-family:Gill Sans MT"
             sodipodi:role="line"
             id="tspan11712"
             x="651.07935"
             y="570.17535">8 Heads,</tspan><tspan
             style="font-family:Gill Sans MT"
             sodipodi:role="line"
             x="651.07935"
             y="585.17535"
             id="tspan1556">4 Platters</tspan></text>
        <text
           sodipodi:linespacing="125%"
           id="text11738"
           y="548.68073"
           x="650.73694"
           style="font-size:21.06624794px;font-style:normal;font-weight:normal;text-align:start;line-height:125%;writing-mode:lr-tb;text-anchor:start;fill:#000000;fill-opacity:1;stroke:none;font-family:Bitstream Vera Sans"
           xml:space="preserve"><tspan
             style="font-family:Gill Sans MT"
             id="tspan11742"
             y="548.68073"
             x="650.73694"
             sodipodi:role="line">Heads</tspan></text>
        <text
           xml:space="preserve"
           style="font-size:12px;font-style:normal;font-weight:normal;fill:#000000;fill-opacity:1;stroke:none;font-family:Bitstream Vera Sans"
           x="760.52924"
           y="526.24341"
           id="text1558"><tspan
             sodipodi:role="line"
             id="tspan1560"
             x="760.52924"
             y="526.24341"> </tspan></text>
      </g>
      <text
         xml:space="preserve"
         style="font-size:12px;font-style:normal;font-weight:normal;line-height:125%;letter-spacing:0px;word-spacing:0px;fill:#000000;fill-opacity:1;stroke:none;font-family:Sans"
         x="611.07129"
         y="652.87836"
         id="text3040"
         sodipodi:linespacing="125%"><tspan
           sodipodi:role="line"
           id="tspan3042"
           x="611.07129"
           y="652.87836">from wikipedia.org</tspan></text>
    </g>
  </g>
</svg>
